<svg width="106" height="43" viewBox="0 0 106 43" fill="none" xmlns="http://www.w3.org/2000/svg">
<g clip-path="url(#clip0_147_4103)">
<path d="M33.8819 12.816C34.3876 12.8757 34.853 13.113 35.1914 13.4832C35.5298 13.8534 35.7179 14.3312 35.7195 14.8265V36.9328C35.7256 37.1995 35.6732 37.4644 35.5657 37.7098C35.4583 37.9552 35.298 38.1755 35.096 38.3561C34.7739 38.6826 34.3451 38.8899 33.8829 38.9423V42.7324C33.8829 42.8031 33.8541 42.871 33.8029 42.9212C33.7517 42.9714 33.6818 43 33.6091 43.0005V43.0005C33.5359 43.0004 33.4661 42.9721 33.4142 42.9219C33.3624 42.8717 33.3326 42.8035 33.3322 42.7324V38.9423C32.8705 38.8892 32.4422 38.682 32.1201 38.3561C31.918 38.1756 31.7578 37.9554 31.6504 37.7099C31.543 37.4644 31.4911 37.1995 31.4976 36.9328V14.8265C31.4988 14.3315 31.6859 13.8541 32.0237 13.4838C32.3615 13.1136 32.827 12.8761 33.3322 12.816V5.94667C33.3326 5.87563 33.3624 5.80764 33.4142 5.75759C33.4661 5.70754 33.536 5.67955 33.6091 5.67969V5.67969C33.6817 5.67996 33.7506 5.70817 33.8019 5.75821C33.8532 5.80826 33.8829 5.87603 33.8829 5.94667L33.8819 12.816Z" fill="url(#paint0_linear_147_4103)"/>
<path d="M26.354 7.13629C26.8588 7.19755 27.3234 7.43539 27.661 7.80537C27.9986 8.17535 28.1862 8.65218 28.1886 9.14679V31.253C28.1949 31.5195 28.1423 31.7843 28.0348 32.0295C27.9273 32.2747 27.7672 32.4947 27.5651 32.6749C27.244 33.0019 26.8158 33.2095 26.354 33.262V38.7385C26.3532 38.8092 26.3239 38.8766 26.2725 38.9265C26.221 38.9763 26.1513 39.0045 26.0787 39.005C26.0059 39.005 25.9364 38.977 25.8849 38.9271C25.8333 38.8771 25.8041 38.8093 25.8038 38.7385V33.2625C25.342 33.2096 24.9133 33.002 24.5917 32.6754C24.3898 32.4952 24.23 32.2751 24.1226 32.0299C24.0152 31.7847 23.963 31.52 23.9693 31.2536V9.1473C23.9713 8.65264 24.1588 8.17564 24.4964 7.80558C24.8339 7.43552 25.2985 7.19776 25.8033 7.1368V0.268032C25.8033 0.197034 25.8323 0.128936 25.8838 0.078685C25.9354 0.0284339 26.0051 0.000135235 26.0782 0V0C26.1511 0.000269671 26.2215 0.0286115 26.273 0.0788335C26.3246 0.129055 26.3534 0.197075 26.3535 0.268032L26.354 7.13629Z" fill="url(#paint1_linear_147_4103)"/>
<path d="M99.4417 18.1974C99.2049 18.1921 98.97 18.234 98.7505 18.3206C98.5311 18.4071 98.332 18.5367 98.166 18.701C98.0005 18.8632 97.8702 19.0558 97.7825 19.2678C97.6947 19.4799 97.6515 19.7069 97.6553 19.9354C97.6477 20.2544 97.7379 20.5684 97.9147 20.8371C98.0916 21.1058 98.3469 21.3172 98.648 21.4441C99.5889 21.7832 100.551 22.0638 101.529 22.2845C102.65 22.5393 103.693 23.048 104.573 23.7695C105.526 24.6563 106.003 25.9077 106.003 27.5419C106.005 28.3094 105.85 29.0698 105.549 29.7792C105.249 30.4887 104.806 31.1333 104.248 31.6761C103.69 32.2188 103.027 32.6489 102.298 32.9417C101.568 33.2344 100.787 33.384 99.9975 33.3819H95.5008C95.2278 33.3837 94.9576 33.3314 94.706 33.2284C94.4545 33.1253 94.2268 32.9738 94.0374 32.7826C93.8369 32.6012 93.6784 32.3805 93.5718 32.1352C93.4652 31.8899 93.4131 31.6255 93.419 31.3592V31.3251C93.4232 30.7875 93.6433 30.2727 94.0323 29.8907C94.4212 29.5087 94.948 29.2896 95.5008 29.2802H100.167C100.402 29.283 100.636 29.2402 100.855 29.154C101.073 29.0679 101.271 28.9402 101.438 28.7786C101.605 28.617 101.737 28.4246 101.827 28.2127C101.917 28.0008 101.962 27.7735 101.96 27.5444C101.96 27.243 101.866 26.9488 101.691 26.7001C101.516 26.4513 101.268 26.2594 100.979 26.1496C100.808 26.0761 99.8428 25.7965 98.086 25.3155C96.9543 25.052 95.9067 24.522 95.0352 23.7722C94.0834 22.8699 93.6077 21.5917 93.6077 19.9379C93.6139 18.3908 94.2486 16.9086 95.3736 15.8145C96.4986 14.7203 98.0229 14.1029 99.614 14.0964H102.788C103.344 14.098 103.877 14.3137 104.27 14.6964C104.663 15.0792 104.884 15.5977 104.885 16.1386V16.1727C104.892 16.4388 104.841 16.7033 104.735 16.9487C104.629 17.1941 104.47 17.4148 104.27 17.5961C104.078 17.7901 103.848 17.9438 103.593 18.0478C103.338 18.1519 103.064 18.2041 102.788 18.2012L99.4417 18.1974ZM73.421 40.2639C72.8714 40.2576 72.3463 40.0424 71.9576 39.6644C71.569 39.2864 71.3477 38.7757 71.3413 38.2412V23.7066C71.349 21.8022 71.9367 19.9428 73.0303 18.3629C74.1239 16.783 75.6744 15.5536 77.486 14.8298C79.2976 14.106 81.2892 13.9202 83.2093 14.2961C85.1293 14.6719 86.8917 15.5925 88.2742 16.9415C89.6566 18.2905 90.5966 20.0076 90.9763 21.8759C91.356 23.7442 91.159 25.68 90.4082 27.4389C89.6574 29.1979 88.3872 30.7013 86.7585 31.7591C85.1298 32.8169 83.2153 33.3817 81.2568 33.3824C78.7586 33.3824 76.8534 32.824 75.5602 31.7095V38.2412C75.5511 38.7761 75.3273 39.2865 74.9377 39.6642C74.5481 40.0418 74.0234 40.2568 73.4733 40.2639H73.421ZM81.2568 29.2455C82.0097 29.2525 82.7566 29.1145 83.4544 28.8392C84.1521 28.5639 84.7868 28.1568 85.3218 27.6416C85.8568 27.1264 86.281 26.5131 86.5708 25.8373C86.8606 25.1615 87.0108 24.4366 87.0108 23.7044C87.0108 22.9722 86.8606 22.2473 86.5708 21.5715C86.281 20.8957 85.8568 20.2827 85.3218 19.7674C84.7868 19.2522 84.1521 18.8452 83.4544 18.5698C82.7566 18.2945 82.0097 18.1562 81.2568 18.1633C80.131 18.1659 79.0309 18.492 78.0952 19.1006C77.1595 19.7091 76.4304 20.573 75.9981 21.5837C75.5658 22.5944 75.4499 23.7068 75.6658 24.7811C75.8817 25.8553 76.4194 26.8434 77.2112 27.6214C77.7351 28.1472 78.3643 28.5628 79.0602 28.8422C79.7561 29.1215 80.504 29.2587 81.2568 29.2455V29.2455ZM65.1453 11.9174C64.7497 11.9197 64.359 11.8269 64.0091 11.6472C63.6592 11.4675 63.3606 11.2064 63.1395 10.8874C62.9184 10.5683 62.7815 10.2012 62.7416 9.81842C62.7017 9.43566 62.7601 9.04937 62.9108 8.69364C63.0615 8.33792 63.3005 8.02387 63.6061 7.77951C63.9117 7.53516 64.2743 7.36795 64.6623 7.29291C65.0504 7.21786 65.4519 7.23719 65.8304 7.34925C66.2089 7.4613 66.5531 7.66273 66.8323 7.93532C67.0608 8.14858 67.2423 8.40457 67.3665 8.68791C67.4908 8.97125 67.5552 9.27608 67.5552 9.58409C67.5552 9.89211 67.4908 10.1969 67.3665 10.4803C67.2423 10.7636 67.0608 11.0196 66.8323 11.2329C66.6139 11.4528 66.3512 11.6269 66.0611 11.7447C65.771 11.8624 65.4597 11.9211 65.1453 11.9174V11.9174ZM65.1638 14.0944C65.4375 14.0887 65.7095 14.1392 65.9616 14.2427C66.2138 14.3463 66.4406 14.5004 66.6272 14.6952C66.8249 14.8821 66.9806 15.1061 67.0866 15.3536C67.1925 15.6011 67.2464 15.8668 67.2435 16.1348V31.3602C67.2371 31.8947 67.0158 32.4054 66.6272 32.7834C66.2385 33.1614 65.7134 33.3765 65.1638 33.3829H65.1279C64.8519 33.3867 64.5777 33.3357 64.3229 33.2326C64.0681 33.1295 63.8378 32.9767 63.6461 32.7836C63.4457 32.6019 63.2868 32.3814 63.1795 32.1362C63.0722 31.8911 63.0192 31.6266 63.0236 31.3602V16.1348C63.0226 15.8665 63.0766 15.6007 63.1836 15.3533C63.2906 15.1059 63.4481 14.8822 63.6461 14.6952C63.8378 14.502 64.0681 14.3491 64.3229 14.2457C64.5777 14.1424 64.8518 14.0909 65.1279 14.0944H65.1638ZM41.7058 40.2644C41.1561 40.2577 40.6303 40.0425 40.2414 39.6647C39.8525 39.2868 39.6304 38.7762 39.623 38.2417V23.7071C39.6304 21.8023 40.2183 19.9423 41.312 18.3619C42.4057 16.7816 43.9568 15.5517 45.7688 14.8276C47.5807 14.1035 49.5725 13.9177 51.493 14.2936C53.4135 14.6695 55.1762 15.5902 56.5589 16.9395C57.9417 18.2889 58.8824 20.0061 59.2621 21.8749C59.6419 23.7436 59.4441 25.6799 58.693 27.4392C57.9419 29.1985 56.6714 30.702 55.0423 31.7598C53.4131 32.8177 51.4985 33.3825 49.5395 33.3829C47.0434 33.3829 45.1371 32.8245 43.8439 31.71V38.2417C43.8349 38.7764 43.6119 39.2866 43.2225 39.6642C42.8331 40.0418 42.308 40.2571 41.7581 40.2644H41.7058ZM49.5395 29.246C50.2925 29.253 51.0394 29.115 51.7371 28.8397C52.4348 28.5644 53.0695 28.1573 53.6045 27.6421C54.1395 27.1269 54.5637 26.5135 54.8536 25.8378C55.1434 25.162 55.2925 24.4371 55.2925 23.7049C55.2925 22.9727 55.1434 22.2478 54.8536 21.572C54.5637 20.8962 54.1395 20.2832 53.6045 19.7679C53.0695 19.2527 52.4348 18.8457 51.7371 18.5703C51.0394 18.295 50.2925 18.1567 49.5395 18.1638C48.414 18.1669 47.3143 18.4933 46.3789 19.1021C45.4436 19.7108 44.7138 20.5746 44.2818 21.5852C43.8499 22.5958 43.7346 23.708 43.9506 24.7821C44.1666 25.8561 44.7043 26.844 45.496 27.6219C46.0196 28.1475 46.6494 28.5629 47.345 28.8422C48.0405 29.1215 48.7871 29.2587 49.5395 29.2455V29.246Z" fill="#5521A9"/>
<path d="M9.91515 18.1976C9.16277 18.1846 8.41567 18.3219 7.72021 18.6014C7.02475 18.8808 6.39577 19.2963 5.87228 19.8219C4.8137 20.8694 4.22055 22.2795 4.22055 23.7482C4.22055 25.2168 4.8137 26.6264 5.87228 27.6739C6.39924 28.1938 7.02928 28.6043 7.72422 28.8804C8.41916 29.1566 9.16452 29.293 9.91515 29.2808C10.6651 29.2847 11.4084 29.1438 12.1021 28.8665C12.7957 28.5892 13.4259 28.1807 13.9561 27.6649C14.4863 27.1492 14.9061 26.5367 15.191 25.8621C15.476 25.1875 15.6205 24.4644 15.6161 23.7352C15.6284 23.0066 15.4866 22.2834 15.1996 21.6103C14.9126 20.9371 14.4864 20.3283 13.9475 19.8219C13.4258 19.2969 12.7986 18.8819 12.1049 18.6024C11.4112 18.3229 10.6659 18.1852 9.91515 18.1976ZM9.91515 14.0938C11.2209 14.0749 12.5167 14.316 13.7228 14.8028C14.9289 15.2896 16.0196 16.0117 16.9277 16.9242C17.8648 17.8065 18.6064 18.8659 19.1067 20.0373C19.607 21.2086 19.8556 22.467 19.837 23.7352V31.3603C19.8427 31.6266 19.7906 31.8908 19.6842 32.1361C19.5777 32.3815 19.4192 32.6025 19.219 32.7843C19.0292 32.975 18.8017 33.1261 18.5501 33.229C18.2985 33.3319 18.0281 33.3845 17.7552 33.383H17.7027C17.4298 33.3854 17.1594 33.3335 16.9079 33.2305C16.6564 33.1275 16.4293 32.9758 16.2404 32.7843C16.0383 32.6037 15.878 32.3831 15.7704 32.1376C15.6627 31.8921 15.6101 31.6272 15.6161 31.3603C14.3112 32.7088 12.4109 33.383 9.91515 33.383C8.61061 33.4016 7.31598 33.16 6.11102 32.6736C4.90606 32.1871 3.8163 31.4662 2.9089 30.5547C1.98655 29.6606 1.25473 28.5982 0.755395 27.4286C0.256059 26.259 -0.000976562 25.005 -0.000976562 23.7387C-0.000976563 22.4723 0.256059 21.2188 0.755395 20.0492C1.25473 18.8797 1.98655 17.8172 2.9089 16.9232C3.81626 16.0116 4.90599 15.2903 6.11095 14.8038C7.31592 14.3173 8.61058 14.0758 9.91515 14.0943V14.0938Z" fill="#5521A9"/>
</g>
<defs>
<linearGradient id="paint0_linear_147_4103" x1="31.4971" y1="35.611" x2="31.4971" y2="5.94093" gradientUnits="userSpaceOnUse">
<stop stop-color="#F50057"/>
<stop offset="1" stop-color="#651FFF"/>
</linearGradient>
<linearGradient id="paint1_linear_147_4103" x1="23.9688" y1="0.195025" x2="23.9688" y2="38.576" gradientUnits="userSpaceOnUse">
<stop stop-color="#F50057"/>
<stop offset="1" stop-color="#651FFF"/>
</linearGradient>
<clipPath id="clip0_147_4103">
<rect width="106" height="43" fill="white"/>
</clipPath>
</defs>
</svg>
