<svg width="0" height="0" class="hidden">
  <symbol fill="none" xmlns="http://www.w3.org/2000/svg" viewBox="0 0 13 9" id="arrow-right">
    <path d="M8.76321 0.149637C8.55 -0.0554774 8.21086 -0.0489058 8.00571 0.164323C7.80064 0.377551 7.80721 0.71668 8.02043 0.921794L10.9306 3.60714H0.535713C0.239849 3.60714 0 3.847 0 4.14286C0 4.43872 0.239849 4.67857 0.535713 4.67857H10.9299L8.02043 7.36321C7.80721 7.56836 7.80064 7.9075 8.00571 8.12071C8.21086 8.33393 8.55 8.3405 8.76321 8.13543L12.4975 4.65729C12.7896 4.37629 12.7896 3.90879 12.4975 3.62772L8.76321 0.149637Z" fill="#0E34FF"></path>
  </symbol>

  <symbol fill="none" xmlns="http://www.w3.org/2000/svg" viewBox="0 0 47 54" id="level-up">
    <g clip-path="url(#clip0_147_4090)">
      <path d="M23.3851 53.6751C23.0268 53.6814 22.6739 53.586 22.3676 53.4001L1.00008 41.0801C0.683773 40.9008 0.420544 40.6409 0.237009 40.3269C0.0535013 40.0131 -0.0437669 39.6562 -0.0449219 39.2926V14.7076C-0.0437669 14.344 0.0535013 13.9872 0.237009 13.6732C0.420544 13.3593 0.683773 13.0995 1.00008 12.9201L22.3676 0.600129C22.6827 0.424321 23.0378 0.332031 23.3988 0.332031C23.7599 0.332031 24.1149 0.424321 24.4301 0.600129L45.7426 12.9201C46.0555 13.1008 46.3148 13.3617 46.4939 13.6759C46.6726 13.99 46.7645 14.3461 46.7601 14.7076V39.2926C46.7645 39.654 46.6726 40.0104 46.4939 40.3244C46.3148 40.6385 46.0555 40.8994 45.7426 41.0801L24.4301 53.4001C24.1125 53.583 23.7517 53.6779 23.3851 53.6751ZM4.13508 38.0001L23.3851 49.0001L42.6351 38.0001V16.0001L23.3851 5.00013L4.13508 16.0001V38.0001Z" fill="#1F2020"></path>
      <path fill-rule="evenodd" clip-rule="evenodd" d="M14.3922 27.0001C14.7851 27.3774 15.3052 27.5932 15.8497 27.6051C16.3966 27.6045 16.9208 27.387 17.3072 27.0001L21.3223 22.9851V36.4326C21.3223 36.9795 21.5395 37.5042 21.9264 37.8909C22.3131 38.2778 22.8378 38.4951 23.3848 38.4951C23.6567 38.4989 23.9265 38.448 24.1784 38.3457C24.4303 38.2432 24.6591 38.0914 24.8513 37.8991C25.0436 37.7069 25.1954 37.4781 25.2977 37.2262C25.4002 36.9743 25.4508 36.7045 25.4473 36.4326V22.9851L29.4623 27.0001C29.8489 27.3864 30.3731 27.6031 30.9198 27.6031C31.4662 27.6031 31.9906 27.3864 32.3773 27.0001C32.572 26.8106 32.7265 26.5837 32.8321 26.3335C32.9377 26.0832 32.9922 25.8143 32.9922 25.5426C32.9922 25.2709 32.9377 25.0019 32.8321 24.7517C32.7265 24.5014 32.572 24.2748 32.3773 24.0851L24.8612 16.5416C24.8595 16.5398 24.8577 16.5381 24.856 16.5363C24.8515 16.5317 24.8469 16.5272 24.8423 16.5226L24.8423 16.5226C24.8423 16.5226 24.8422 16.5226 24.8422 16.5226C24.6537 16.3358 24.4309 16.187 24.1864 16.0842C23.9356 15.979 23.6663 15.9242 23.3944 15.9229C23.1224 15.9216 22.8529 15.9739 22.6013 16.0768C22.3494 16.1797 22.1206 16.3312 21.9272 16.5226L14.3922 24.0851C14.006 24.4717 13.7891 24.9961 13.7891 25.5426C13.7891 26.0893 14.006 26.6134 14.3922 27.0001Z" fill="#1F2020"></path>
    </g>
    <defs>
      <clipPath id="clip0_147_4090">
        <rect width="47" height="54" fill="white"></rect>
      </clipPath>
    </defs>
  </symbol>
</svg>